<svg height="800px" width="800px" version="1.1" id="Capa_1" xmlns="http://www.w3.org/2000/svg" xmlns:xlink="http://www.w3.org/1999/xlink"
	 viewBox="0 0 58 58" xml:space="preserve">
<g>
	<circle style="fill:#FBCE9D;" cx="29" cy="29" r="29"/>
	<path style="fill:#F98D85;" d="M43.993,37.703c0.004-0.135,0.006-0.271,0.007-0.405c0.005-1.052-0.495-2.022-1.239-2.765
		c-1.245-1.243-1.678-3.17-1.298-4.89c0.194-0.879-0.007-1.794-0.452-2.577c-2.198-3.868-5.215-7.903-7.674-10.962
		c-2.227-2.77-6.43-2.772-8.659-0.003c-2.485,3.088-5.539,7.176-7.741,11.095c-0.437,0.777-0.533,1.673-0.387,2.552
		c0.279,1.681-0.2,3.51-1.438,4.68c-0.685,0.647-1.073,1.566-1.089,2.508c-0.001,0.06-0.002,0.119-0.002,0.179
		c-0.008,1.28,0.582,2.542,1.647,3.251c1.682,1.121,2.345,3.278,1.992,5.219c-0.195,1.072,0.087,2.187,0.784,3.025
		c2.356,2.833,5.775,5.657,10.566,8.39c5.142-2.933,8.708-5.97,11.071-9.012c0.639-0.823,0.985-1.868,0.856-2.902
		c-0.208-1.666,0.319-3.439,1.581-4.552C43.353,39.798,43.96,38.816,43.993,37.703z"/>
	<path style="fill:#EA6248;" d="M24.679,16.101c2.228-2.769,6.432-2.767,8.658,0.003c1.515,1.884,3.24,4.14,4.856,6.498
		C38.912,10.427,29.011,1,29.011,1s-9.896,9.422-9.183,21.593C21.442,20.235,23.165,17.982,24.679,16.101z"/>
	<path style="fill:#C64646;" d="M31.853,14.812c0.715-0.723,1.158-1.715,1.158-2.812c0-2.209-1.791-4-4-4s-4,1.791-4,4
		c0,1.095,0.442,2.086,1.155,2.808C27.911,13.767,30.109,13.769,31.853,14.812z"/>
	<path style="fill:#EA6248;" d="M29.011,18c0,0-20.75,19.75,0,39C49.761,37.75,29.011,18,29.011,18z"/>
	<path style="fill:#BF5A45;" d="M31.171,48.395l-0.956,1.148c-0.632,0.759-1.797,0.759-2.429,0l-0.956-1.148
		C25.001,46.201,24,43.436,24,40.581V35.16c0-1.745,1.415-3.16,3.16-3.16h3.681c1.745,0,3.16,1.415,3.16,3.16v5.421
		C34,43.436,32.999,46.201,31.171,48.395z"/>
	<path style="fill:#F98D85;" d="M29,40c-2.109,0-3.91,1.438-4.644,3.471c0.438,1.796,1.273,3.484,2.473,4.924l0.956,1.148
		c0.632,0.759,1.797,0.759,2.429,0l0.956-1.148c1.2-1.44,2.035-3.128,2.473-4.924C32.91,41.438,31.109,40,29,40z"/>
</g>
</svg>